<svg width="617" height="261" viewBox="0 0 617 261" fill="none" xmlns="http://www.w3.org/2000/svg"><g filter="url(#filter0_f)"><path d="M145.325 139.03C105.862 141.106 85 153.307 85 166.382c0 15.922 2.874 28.168 29.032 33.253 20.223 3.914 155.004-2.002 218.017-1.838 84.833.222 141.965 2.638 159.235 3.172 49.362 1.557 60.246-56.172-3.459-60.59-58.516-4.076-284.25-4.388-342.5-1.349z" fill="#CF9898" fill-opacity=".39"/></g><g filter="url(#filter1_f)"><path d="M116.122 152.412c-46.526.422-71.122 2.9-71.122 5.556 0 3.234 3.388 5.722 34.228 6.755 23.843.795 182.745-.407 257.035-.374 100.016.045 167.373.536 187.734.645 58.196.316 71.028-11.41-4.078-12.308-68.989-.828-335.123-.891-403.797-.274z" fill="#CF9898" fill-opacity=".53"/></g><path d="M560.884 157.019h-.002c-3.23-.179-7.474-.445-12.688-.77-33.237-2.077-105.925-6.618-207.182-7.094-33.171-.154-80.731 1.88-128.405 3.919-14.892.636-29.796 1.274-44.276 1.845-30.434 1.201-58.998 2.11-81.692 2.114-11.348.002-21.208-.222-29.088-.747-7.929-.528-13.705-1.353-16.984-2.492-17.643-6.157-27.33-16.578-32.673-30.259C2.502 109.732 1.5 92.541 1.5 72.81c0-31.34 27.882-61.184 81.908-66.285C123.523 2.767 221.447 1.075 319.5 1.59c98.065.515 196.059 3.235 236.338 8.273h.001c21.533 2.68 36.7 13.422 46.36 27.962 9.686 14.579 13.871 33.041 13.239 51.12-.632 18.083-6.079 35.637-15.482 48.388-9.38 12.72-22.643 20.616-39.072 19.686z" fill="#fff"/><path d="M560.884 157.019h-.002c-3.23-.179-7.474-.445-12.688-.77-33.237-2.077-105.925-6.618-207.182-7.094-33.171-.154-80.731 1.88-128.405 3.919-14.892.636-29.796 1.274-44.276 1.845-30.434 1.201-58.998 2.11-81.692 2.114-11.348.002-21.208-.222-29.088-.747-7.929-.528-13.705-1.353-16.984-2.492-17.643-6.157-27.33-16.578-32.673-30.259C2.502 109.732 1.5 92.541 1.5 72.81c0-31.34 27.882-61.184 81.908-66.285C123.523 2.767 221.447 1.075 319.5 1.59c98.065.515 196.059 3.235 236.338 8.273h.001c21.533 2.68 36.7 13.422 46.36 27.962 9.686 14.579 13.871 33.041 13.239 51.12-.632 18.083-6.079 35.637-15.482 48.388-9.38 12.72-22.643 20.616-39.072 19.686z" fill="url(#paint0_linear)"/><path d="M560.884 157.019h-.002c-3.23-.179-7.474-.445-12.688-.77-33.237-2.077-105.925-6.618-207.182-7.094-33.171-.154-80.731 1.88-128.405 3.919-14.892.636-29.796 1.274-44.276 1.845-30.434 1.201-58.998 2.11-81.692 2.114-11.348.002-21.208-.222-29.088-.747-7.929-.528-13.705-1.353-16.984-2.492-17.643-6.157-27.33-16.578-32.673-30.259C2.502 109.732 1.5 92.541 1.5 72.81c0-31.34 27.882-61.184 81.908-66.285C123.523 2.767 221.447 1.075 319.5 1.59c98.065.515 196.059 3.235 236.338 8.273h.001c21.533 2.68 36.7 13.422 46.36 27.962 9.686 14.579 13.871 33.041 13.239 51.12-.632 18.083-6.079 35.637-15.482 48.388-9.38 12.72-22.643 20.616-39.072 19.686z" stroke="url(#paint1_linear)" stroke-width="3"/><defs><linearGradient id="paint0_linear" x1="308" y1="146" x2="305" y2="4" gradientUnits="userSpaceOnUse"><stop stop-color="#FFF6EF"/><stop offset="1" stop-color="#fff" stop-opacity="0"/></linearGradient><linearGradient id="paint1_linear" x1="309" y1="153" x2="309" y2="39" gradientUnits="userSpaceOnUse"><stop stop-color="#EDD3D0" stop-opacity=".71"/><stop offset="1" stop-color="#fff" stop-opacity="0"/></linearGradient><filter id="filter0_f" x="25" y="77" width="567" height="184" filterUnits="userSpaceOnUse" color-interpolation-filters="sRGB"><feFlood flood-opacity="0" result="BackgroundImageFix"/><feBlend in="SourceGraphic" in2="BackgroundImageFix" result="shape"/><feGaussianBlur stdDeviation="30" result="effect1_foregroundBlur"/></filter><filter id="filter1_f" x="25" y="132" width="567" height="53" filterUnits="userSpaceOnUse" color-interpolation-filters="sRGB"><feFlood flood-opacity="0" result="BackgroundImageFix"/><feBlend in="SourceGraphic" in2="BackgroundImageFix" result="shape"/><feGaussianBlur stdDeviation="10" result="effect1_foregroundBlur"/></filter></defs></svg>