<svg width="1920" height="990" viewBox="0 0 1920 990" fill="none" xmlns="http://www.w3.org/2000/svg">
<path d="M265 798C265 798 32 798 0 798L-1 934.766C21 945.766 58.4313 997.26 217 972.766C463 934.766 732.567 936.426 936 952.766C1185 972.766 1477 988.766 1641 988.766C1752.76 988.766 1878 982.266 1920 937.266V798H1611H953H265Z" fill="#FFF6EE"/>
<path d="M265 798C265 798 32 798 0 798L-1 934.766C21 945.766 58.4313 997.26 217 972.766C463 934.766 732.567 936.426 936 952.766C1185 972.766 1477 988.766 1641 988.766C1752.76 988.766 1878 982.266 1920 937.266V798H1611H953H265Z" fill="url(#paint0_linear_603_598)"/>
<path d="M265 798C265 798 32 798 0 798L-1 934.766C21 945.766 58.4313 997.26 217 972.766C463 934.766 732.567 936.426 936 952.766C1185 972.766 1477 988.766 1641 988.766C1752.76 988.766 1878 982.266 1920 937.266V798H1611H953H265Z" stroke="#FFF6EE"/>
<path d="M265 136C265 136 32 136 0 136V804H218H937H1642H1921L1920 136H1611H953H265Z" fill="#FFF6EE"/>
<path d="M265 136C265 136 32 136 0 136V804H218H937H1642H1921L1920 136H1611H953H265Z" fill="url(#paint1_linear_603_598)"/>
<path d="M265 14.7671C130.6 0.367129 15.3333 30.1002 0 48.7668L-1 180H217H936H1641H1920V28.7672C1901 2.88756 1763 -11.1125 1611 14.7671C1492.29 34.9783 1125.29 60.7672 953 60.7672C795 60.7672 433 32.7671 265 14.7671Z" fill="#FFF6EE" stroke="#FFF6EE"/>
<g opacity="0.3" clip-path="url(#clip0_603_598)">
<path d="M1106.35 213.019L1108.09 201.731L1119.28 198.512L1120.33 185.703L1133.31 185.954L1135.14 171.534L1147.13 170.292L1151.15 156.704L1146.01 155.166L1143 165.32L1130.35 166.635L1128.6 180.495L1115.4 180.245L1114.24 194.373L1103.31 197.509L1101.7 207.983L1094.09 208.546L1094.5 213.893L1106.35 213.019Z" fill="#00C0A5"/>
<path d="M875.53 189.015L888.758 193.363L899.853 184.937C900.137 184.72 900.477 184.587 900.833 184.553C901.189 184.519 901.547 184.585 901.867 184.745C902.187 184.905 902.456 185.151 902.643 185.456C902.83 185.761 902.927 186.112 902.924 186.47L902.867 200.429L914.313 208.371C914.612 208.573 914.848 208.855 914.994 209.186C915.14 209.516 915.189 209.881 915.137 210.238C915.085 210.595 914.933 210.931 914.699 211.206C914.465 211.481 914.158 211.684 913.814 211.793L900.549 216.051L896.523 229.39C896.411 229.72 896.21 230.013 895.943 230.237C895.676 230.461 895.353 230.607 895.009 230.661C894.664 230.714 894.312 230.673 893.99 230.54C893.667 230.408 893.387 230.19 893.18 229.91L885.039 218.613L871.124 218.88C870.767 218.89 870.414 218.799 870.105 218.618C869.797 218.437 869.546 218.173 869.38 217.857C869.214 217.54 869.141 217.183 869.168 216.827C869.195 216.47 869.321 216.128 869.533 215.84L877.759 204.64L873.131 191.47C873.011 191.133 872.988 190.769 873.064 190.42C873.141 190.07 873.314 189.749 873.564 189.493C873.814 189.237 874.131 189.057 874.478 188.972C874.826 188.888 875.19 188.902 875.53 189.015Z" fill="#FFCD7B"/>
<path d="M1019.52 160.86C1021.57 160.839 1023.61 161.276 1025.47 162.137C1027.33 162.999 1028.98 164.265 1030.3 165.842C1031.24 166.926 1031.96 168.188 1032.4 169.554C1032.85 170.92 1033.01 172.361 1032.89 173.793C1032.76 175.224 1032.35 176.615 1031.68 177.885C1031.01 179.154 1030.09 180.275 1028.97 181.181C1023.77 185.637 1013.72 186.349 998.231 179.095C993.468 162.689 995.686 152.853 1000.89 148.398C1001.95 147.437 1003.21 146.7 1004.56 146.231C1005.92 145.763 1007.36 145.571 1008.79 145.669C1010.23 145.766 1011.63 146.15 1012.91 146.798C1014.19 147.447 1015.33 148.346 1016.26 149.442C1017.62 150.985 1018.61 152.81 1019.18 154.784C1019.74 156.759 1019.86 158.834 1019.52 160.86Z" fill="#FF8D7F"/>
<path d="M983.107 122.501C985.924 127.159 989.001 131.655 992.324 135.967C993.327 137.285 994.687 139.814 996.503 139.854C996.939 139.901 997.378 139.78 997.728 139.515C998.078 139.25 998.313 138.861 998.386 138.428C998.731 136.635 996.788 135.002 995.783 133.693C992.738 129.728 989.399 125.027 986.336 120.122C986.02 119.694 985.548 119.408 985.022 119.329C984.496 119.249 983.96 119.381 983.532 119.697C983.104 120.012 982.818 120.485 982.739 121.011C982.659 121.537 982.791 122.073 983.107 122.501Z" fill="#FF8D7F"/>
<path d="M1024.29 197.129C1025.73 199.069 1027.21 200.977 1028.68 202.893C1030.15 204.809 1031.44 207.132 1033.38 208.36C1033.68 208.585 1034.05 208.707 1034.42 208.709C1034.8 208.71 1035.16 208.591 1035.46 208.368C1035.76 208.145 1035.99 207.832 1036.09 207.473C1036.2 207.114 1036.19 206.73 1036.07 206.378C1035.36 204.105 1033.39 202.268 1031.97 200.438C1030.55 198.609 1029.02 196.614 1027.51 194.728C1026.01 192.843 1022.73 195.032 1024.28 197.105L1024.29 197.129Z" fill="#FF8D7F"/>
<path d="M971.615 159.41C977.498 158.717 980.987 160.688 984.246 161.733C984.604 161.882 985.005 161.897 985.373 161.775C985.742 161.653 986.055 161.403 986.255 161.07C986.455 160.737 986.529 160.344 986.463 159.961C986.397 159.578 986.195 159.232 985.895 158.985C982.188 155.458 975.972 154.812 971.127 155.432C968.575 155.757 969.049 159.711 971.615 159.41Z" fill="#FF8D7F"/>
<path d="M978.436 189.265C980.334 187.671 982.545 186.492 984.926 185.803C986.403 185.385 991.307 185.26 990.163 182.552C989.02 179.845 984.737 181.535 982.881 182.159C980.378 183.004 978.057 184.315 976.04 186.021C974.068 187.692 976.434 190.928 978.436 189.265Z" fill="#FF8D7F"/>
<path d="M1002.95 196.278C1003 197.932 1003.06 199.601 1003.08 201.256C1003.09 202.911 1002.78 204.785 1004.14 205.965C1004.5 206.245 1004.96 206.374 1005.41 206.325C1005.87 206.276 1006.29 206.053 1006.58 205.702C1007.75 204.542 1007.21 202.264 1007.17 200.746C1007.12 199.229 1007.05 197.434 1007.01 195.78C1006.94 195.245 1006.66 194.758 1006.23 194.426C1005.81 194.094 1005.27 193.941 1004.73 194.003C1004.2 194.08 1003.72 194.36 1003.39 194.784C1003.05 195.208 1002.9 195.743 1002.95 196.278Z" fill="#FF8D7F"/>
<path d="M1021.18 138.678C1027.86 127.108 1027.96 127.147 1028.18 125.724C1028.22 125.384 1028.16 125.04 1028.01 124.734C1027.86 124.427 1027.62 124.171 1027.32 123.995C1027.03 123.82 1026.69 123.733 1026.35 123.746C1026.01 123.758 1025.68 123.868 1025.4 124.064C1024.18 124.982 1024.4 124.825 1017.42 137.056C1017.21 137.56 1017.2 138.125 1017.41 138.631C1017.61 139.138 1018 139.545 1018.5 139.767C1019 139.974 1019.57 139.977 1020.07 139.776C1020.58 139.575 1020.99 139.185 1021.22 138.689L1021.18 138.678Z" fill="#FF8D7F"/>
<path d="M1034.68 156.08C1036.78 155.481 1038.82 154.658 1040.75 153.623C1042.55 152.651 1045.44 151.413 1045.42 149.061C1045.39 148.788 1045.29 148.527 1045.12 148.307C1044.96 148.087 1044.74 147.916 1044.48 147.813C1042.51 147.16 1040.55 149.112 1038.88 149.996C1037.06 150.948 1035.16 151.741 1033.2 152.366C1032.94 152.455 1032.71 152.594 1032.51 152.776C1032.31 152.957 1032.15 153.178 1032.04 153.423C1031.92 153.669 1031.86 153.935 1031.86 154.205C1031.85 154.474 1031.9 154.743 1032 154.994C1032.1 155.245 1032.25 155.473 1032.44 155.665C1032.63 155.857 1032.85 156.008 1033.1 156.109C1033.35 156.211 1033.62 156.26 1033.89 156.255C1034.16 156.25 1034.43 156.191 1034.68 156.08Z" fill="#FF8D7F"/>
<path d="M1051.97 181.997C1052.39 181.819 1052.73 181.484 1052.91 181.062C1053.09 180.641 1053.11 180.166 1052.94 179.736C1052.45 178.01 1049.85 177.261 1048.34 176.655C1046.59 175.961 1044.78 175.408 1042.94 175C1042.68 174.961 1042.41 174.975 1042.15 175.041C1041.89 175.107 1041.65 175.223 1041.44 175.383C1041.23 175.543 1041.05 175.744 1040.92 175.974C1040.78 176.204 1040.7 176.458 1040.66 176.721C1040.61 177.247 1040.75 177.774 1041.07 178.197C1041.39 178.619 1041.85 178.905 1042.37 178.995C1049.29 180.822 1049.58 182.701 1051.97 181.997Z" fill="#FF8D7F"/>
<path d="M1025.22 263.008C1013.91 265.135 1008.94 279.226 1012.86 289.085C1017.21 299.964 1029.38 306.458 1040.83 304.558C1053.24 302.511 1060.4 292.373 1057.77 281.07C1055.17 270.095 1043.42 266.316 1034.8 272.505C1028.62 276.955 1028.08 284.074 1031.01 286.636C1033.29 288.632 1036.98 287.265 1036.67 284.064C1036.58 283.447 1036.31 282.87 1035.9 282.402C1035.49 281.933 1034.96 281.594 1034.36 281.424C1034.55 278.467 1038.52 274.436 1044.21 274.468C1051.47 274.502 1054.55 282.702 1053.14 288.851C1051.36 296.661 1043.28 300.426 1035.8 300.185C1027.95 299.924 1020.19 294.786 1017.22 287.448C1015.63 283.414 1015.69 278.918 1017.38 274.924C1019.06 270.931 1022.25 267.758 1026.25 266.089C1026.66 265.952 1027 265.659 1027.19 265.274C1027.38 264.888 1027.41 264.442 1027.28 264.034C1027.14 263.625 1026.85 263.288 1026.46 263.096C1026.08 262.903 1025.63 262.872 1025.22 263.008Z" fill="#70B2F5"/>
</g>
<g opacity="0.3" clip-path="url(#clip1_603_598)">
<path d="M338.062 598.181L325.516 603.721L313.837 596.53C313.539 596.352 313.198 596.26 312.851 596.264C312.504 596.268 312.164 596.368 311.871 596.553C311.577 596.738 311.34 597.001 311.187 597.313C311.033 597.624 310.969 597.972 311.001 598.317L312.417 611.986L301.968 620.877C301.702 621.106 301.505 621.404 301.399 621.738C301.293 622.072 301.282 622.43 301.368 622.77C301.453 623.11 301.631 623.419 301.882 623.664C302.133 623.909 302.448 624.079 302.79 624.155L316.202 627.044L321.416 639.724C321.549 640.05 321.77 640.333 322.055 640.539C322.34 640.746 322.678 640.868 323.029 640.893C323.38 640.917 323.731 640.842 324.042 640.677C324.353 640.511 324.611 640.262 324.787 639.957L331.635 628.072L345.308 627.036C345.66 627.008 345.996 626.883 346.28 626.674C346.564 626.465 346.784 626.181 346.915 625.854C347.046 625.527 347.083 625.17 347.021 624.823C346.96 624.476 346.803 624.153 346.568 623.89L337.447 613.717L340.7 600.377C340.798 600.028 340.793 599.657 340.685 599.311C340.577 598.964 340.372 598.656 340.093 598.424C339.814 598.192 339.474 598.046 339.113 598.003C338.753 597.959 338.388 598.022 338.062 598.181Z" fill="#FF7556"/>
<path d="M291.054 728.06C288.356 727.636 285.592 728.022 283.112 729.169C280.633 730.316 278.549 732.172 277.125 734.503C275.701 736.835 275 739.536 275.111 742.265C275.222 744.995 276.141 747.63 277.75 749.838C279.359 752.045 281.587 753.726 284.152 754.667C286.716 755.609 289.502 755.768 292.158 755.126C294.813 754.483 297.218 753.067 299.069 751.058C300.919 749.048 302.132 746.535 302.554 743.836C303.119 740.219 302.226 736.526 300.069 733.568C297.913 730.61 294.671 728.629 291.054 728.06Z" fill="#FFCD7B"/>
<path d="M327.962 754.709C324.004 753.575 319.816 752.695 316.08 751.009C312.869 749.558 314.315 744.482 317.846 745.048C322.171 745.735 326.467 747.459 330.655 748.732C332.347 749.244 332.961 751.594 332.299 753.06C331.493 754.859 329.672 755.211 327.962 754.709Z" fill="#FFCD7B"/>
<path d="M308.915 776.802C306.608 772.018 303.61 767.769 300.823 763.276C298.617 759.778 303.185 756.593 305.913 759.53C309.819 763.772 312.701 769.149 315.191 774.312C315.376 774.726 315.475 775.174 315.482 775.627C315.489 776.081 315.405 776.531 315.233 776.951C315.062 777.371 314.807 777.752 314.484 778.071C314.161 778.39 313.777 778.64 313.355 778.807C312.933 778.973 312.482 779.052 312.028 779.04C311.575 779.027 311.129 778.922 310.717 778.733C310.305 778.543 309.935 778.271 309.631 777.935C309.327 777.599 309.093 777.204 308.946 776.775L308.915 776.802Z" fill="#FFCD7B"/>
<path d="M285.011 766.1C285.405 765.649 285.955 765.365 286.551 765.304C287.146 765.244 287.742 765.412 288.218 765.775C290.887 767.55 290.42 771.447 290.095 774.223C289.728 777.127 288.936 779.96 287.745 782.633C286.016 786.572 279.91 783.845 281.643 779.893C285.048 772.155 282.352 768.887 285.011 766.1Z" fill="#FFCD7B"/>
<path d="M258.634 759.461C264.826 755.956 267.088 752.857 270.255 753.633C270.664 753.708 271.05 753.873 271.386 754.117C271.723 754.361 272 754.678 272.198 755.043C272.396 755.408 272.509 755.813 272.53 756.228C272.551 756.643 272.478 757.058 272.318 757.441C271.65 759.551 269.273 760.528 267.56 761.68C265.848 762.832 264.281 763.875 262.553 764.843C261.832 765.338 260.95 765.538 260.087 765.404C259.223 765.269 258.443 764.811 257.907 764.121C256.934 762.8 257.083 760.338 258.625 759.465L258.634 759.461Z" fill="#FFCD7B"/>
<path d="M258.924 743.777C255.479 742.176 254.218 741.802 252.707 740.005C251.392 738.433 252.568 735.476 254.692 735.45C257.174 735.421 258.035 735.978 261.665 737.675C262.065 737.855 262.427 738.112 262.728 738.431C263.029 738.751 263.265 739.127 263.421 739.537C263.577 739.948 263.65 740.385 263.638 740.824C263.625 741.263 263.525 741.695 263.346 742.096C263.166 742.496 262.909 742.858 262.589 743.159C262.269 743.46 261.894 743.696 261.483 743.852C261.073 744.008 260.635 744.082 260.196 744.069C259.757 744.056 259.325 743.957 258.924 743.777Z" fill="#FFCD7B"/>
<path d="M268.942 727.65C265.036 721.507 263.907 720.232 264.336 717.986C264.589 716.664 265.99 715.278 267.453 715.695C270.181 716.472 270.805 718.141 274.227 723.78C274.72 724.488 274.92 725.359 274.787 726.211C274.654 727.063 274.198 727.831 273.512 728.355C272.811 728.863 271.938 729.073 271.082 728.941C270.227 728.809 269.458 728.345 268.942 727.65Z" fill="#FFCD7B"/>
<path d="M290.998 706.155C292.399 703.983 296.246 705.229 296.317 707.747C296.387 710.264 295.971 711.007 292.917 722.287C292.76 723.152 292.277 723.924 291.567 724.444C290.858 724.964 289.977 725.193 289.105 725.083C287.455 724.808 285.802 723.038 286.308 721.27C289.531 709.509 289.588 708.332 290.998 706.155Z" fill="#FFCD7B"/>
<path d="M308.236 725.69C314.835 719.918 313.844 718.91 317.767 716.743C319.518 715.774 322.128 717.872 321.587 719.792C320.906 722.291 320.426 722.932 317.525 726.013C315.841 727.804 314.069 729.509 312.214 731.121C311.491 731.643 310.592 731.86 309.71 731.725C308.828 731.59 308.035 731.114 307.501 730.399C306.989 729.672 306.78 728.775 306.917 727.896C307.054 727.018 307.527 726.227 308.236 725.69Z" fill="#FFCD7B"/>
<path d="M381.143 797.969C369.974 795.938 365.071 782.052 368.864 772.359C373.087 761.624 385.032 755.179 396.324 756.99C408.575 758.936 415.645 768.928 413.059 780.046C410.536 790.873 399.002 794.643 390.463 788.591C384.36 784.254 383.793 777.234 386.684 774.7C388.919 772.728 392.557 774.048 392.268 777.2C392.18 777.807 391.92 778.376 391.519 778.839C391.118 779.303 390.593 779.642 390.005 779.817C390.21 782.726 394.139 786.686 399.738 786.615C406.902 786.547 409.869 778.461 408.464 772.413C406.668 764.711 398.703 761.063 391.345 761.343C383.62 761.632 375.988 766.71 373.101 773.968C371.553 777.944 371.626 782.368 373.306 786.291C374.985 790.213 378.136 793.32 382.082 794.944C382.45 795.094 382.749 795.377 382.919 795.737C383.088 796.096 383.117 796.507 382.999 796.887C382.881 797.266 382.625 797.588 382.282 797.789C381.938 797.989 381.532 798.054 381.143 797.969Z" fill="#70B2F5"/>
<path d="M210.649 715.784L198.291 691.767L234.509 692.157L210.649 715.784Z" fill="#6EDACA"/>
</g>
<g opacity="0.3" clip-path="url(#clip2_603_598)">
<path d="M1071.97 888.65L1071.52 874.943L1082.56 866.801C1082.84 866.591 1083.05 866.309 1083.18 865.985C1083.3 865.662 1083.34 865.31 1083.27 864.968C1083.21 864.626 1083.06 864.309 1082.83 864.05C1082.59 863.791 1082.3 863.601 1081.96 863.502L1068.76 859.703L1064.42 846.687C1064.31 846.355 1064.1 846.061 1063.83 845.838C1063.56 845.615 1063.23 845.471 1062.89 845.423C1062.54 845.375 1062.19 845.424 1061.87 845.566C1061.54 845.707 1061.27 845.935 1061.07 846.224L1053.38 857.582L1039.67 857.676C1039.31 857.677 1038.97 857.777 1038.67 857.964C1038.37 858.151 1038.13 858.418 1037.98 858.735C1037.82 859.052 1037.76 859.405 1037.8 859.755C1037.84 860.105 1037.97 860.438 1038.19 860.715L1046.65 871.511L1042.5 884.58C1042.39 884.916 1042.38 885.275 1042.47 885.616C1042.56 885.958 1042.74 886.268 1042.99 886.512C1043.25 886.756 1043.57 886.923 1043.91 886.996C1044.25 887.069 1044.61 887.044 1044.94 886.924L1057.79 882.27L1068.95 890.276C1069.23 890.497 1069.58 890.631 1069.94 890.661C1070.3 890.69 1070.66 890.615 1070.98 890.443C1071.3 890.271 1071.57 890.01 1071.74 889.692C1071.92 889.374 1072 889.012 1071.97 888.65Z" fill="#FF7556"/>
<path d="M969.094 796.482C970.497 794.137 971.173 791.43 971.036 788.701C970.9 785.973 969.957 783.346 968.328 781.153C966.698 778.961 964.455 777.3 961.882 776.383C959.309 775.465 956.521 775.331 953.872 775.998C951.223 776.665 948.831 778.103 946.999 780.129C945.167 782.156 943.977 784.68 943.58 787.383C943.183 790.086 943.596 792.846 944.768 795.314C945.94 797.782 947.817 799.846 950.163 801.247C953.305 803.124 957.065 803.676 960.615 802.783C964.164 801.889 967.214 799.623 969.094 796.482Z" fill="#FFCD7B"/>
<path d="M930.577 820.745C933.108 817.498 935.491 813.943 938.452 811.108C940.998 808.673 945.165 811.913 943.319 814.976C941.066 818.73 937.86 822.07 935.112 825.477C934.005 826.855 931.596 826.546 930.484 825.384C929.117 823.964 929.471 822.143 930.577 820.745Z" fill="#FFCD7B"/>
<path d="M917.21 794.818C922.51 794.468 927.571 793.276 932.78 792.372C936.85 791.633 938.095 797.062 934.351 798.493C928.956 800.529 922.891 801.191 917.172 801.57C916.718 801.586 916.266 801.511 915.843 801.348C915.42 801.185 915.034 800.938 914.708 800.622C914.383 800.306 914.125 799.927 913.95 799.508C913.775 799.09 913.687 798.64 913.69 798.186C913.694 797.733 913.789 797.285 913.97 796.869C914.152 796.453 914.415 796.078 914.745 795.767C915.076 795.456 915.465 795.215 915.891 795.058C916.317 794.902 916.77 794.833 917.223 794.857L917.21 794.818Z" fill="#FFCD7B"/>
<path d="M936.075 776.651C936.346 777.185 936.404 777.802 936.237 778.376C936.07 778.951 935.691 779.441 935.177 779.747C932.532 781.559 929.093 779.668 926.64 778.328C924.084 776.902 921.752 775.108 919.719 773.003C916.713 769.927 921.525 765.284 924.542 768.369C930.445 774.421 934.485 773.143 936.075 776.651Z" fill="#FFCD7B"/>
<path d="M952.097 754.67C953.031 761.724 955.06 764.981 953.156 767.628C952.934 767.979 952.635 768.276 952.283 768.496C951.931 768.717 951.534 768.856 951.121 768.902C950.709 768.949 950.29 768.903 949.898 768.767C949.505 768.631 949.148 768.409 948.853 768.117C947.146 766.708 947.129 764.139 946.701 762.12C946.273 760.1 945.891 758.258 945.639 756.293C945.45 755.439 945.594 754.546 946.042 753.796C946.489 753.045 947.206 752.493 948.047 752.253C949.636 751.845 951.863 752.904 952.096 754.66L952.097 754.67Z" fill="#FFCD7B"/>
<path d="M966.534 760.805C969.306 758.209 970.125 757.179 972.357 756.45C974.307 755.818 976.61 758.015 975.839 759.994C974.938 762.307 974.099 762.897 971.168 765.629C970.852 765.933 970.478 766.172 970.069 766.332C969.66 766.492 969.224 766.57 968.784 766.561C968.345 766.552 967.912 766.457 967.51 766.281C967.108 766.105 966.744 765.851 966.44 765.534C966.135 765.218 965.896 764.844 965.736 764.435C965.576 764.026 965.499 763.589 965.507 763.15C965.516 762.711 965.611 762.278 965.788 761.876C965.964 761.473 966.217 761.11 966.534 760.805Z" fill="#FFCD7B"/>
<path d="M977.744 776.127C984.903 774.802 986.507 774.231 988.429 775.469C989.561 776.198 990.322 778.016 989.389 779.217C987.648 781.457 985.866 781.411 979.356 782.476C978.516 782.668 977.633 782.528 976.892 782.086C976.152 781.644 975.61 780.933 975.381 780.102C975.172 779.262 975.304 778.373 975.746 777.629C976.189 776.885 976.907 776.345 977.744 776.127Z" fill="#FFCD7B"/>
<path d="M989.431 804.621C990.922 806.733 988.327 809.835 985.966 808.959C983.605 808.083 983.072 807.419 973.752 800.369C973.009 799.899 972.474 799.162 972.256 798.31C972.039 797.458 972.157 796.555 972.585 795.787C973.457 794.36 975.716 793.488 977.167 794.619C986.869 802.006 987.939 802.5 989.431 804.621Z" fill="#FFCD7B"/>
<path d="M964.867 813.303C967.752 821.582 969.058 821.039 969.6 825.488C969.844 827.474 966.923 829.11 965.343 827.891C963.28 826.324 962.865 825.64 961.094 821.797C960.062 819.566 959.144 817.284 958.342 814.961C958.128 814.095 958.263 813.18 958.718 812.412C959.173 811.645 959.911 811.087 960.774 810.859C961.64 810.657 962.55 810.798 963.314 811.254C964.077 811.71 964.634 812.444 964.867 813.303Z" fill="#FFCD7B"/>
<path d="M870.567 853.889C876.627 844.289 891.34 844.936 898.91 852.078C907.287 860.01 908.797 873.498 902.895 883.294C896.508 893.928 884.598 896.748 875.253 890.191C866.156 883.803 866.973 871.696 875.779 866.04C882.084 862.002 888.806 864.101 890.076 867.729C891.069 870.54 888.484 873.42 885.668 871.974C885.138 871.665 884.708 871.211 884.428 870.666C884.148 870.121 884.03 869.507 884.088 868.896C881.313 867.998 876.171 870.161 874.143 875.381C871.527 882.05 877.917 887.826 884.051 888.784C891.866 889.999 898.228 883.977 900.72 877.048C903.341 869.775 901.485 860.798 895.834 855.406C892.726 852.483 888.595 850.897 884.329 850.987C880.063 851.078 876.003 852.839 873.022 855.891C872.744 856.176 872.37 856.347 871.973 856.37C871.576 856.393 871.185 856.266 870.877 856.015C870.568 855.764 870.366 855.406 870.308 855.012C870.251 854.619 870.343 854.218 870.567 853.889Z" fill="#70B2F5"/>
<path d="M1010.55 726.502L1037.44 724.022L1023.54 757.466L1010.55 726.502Z" fill="#6EDACA"/>
</g>
<defs>
<linearGradient id="paint0_linear_603_598" x1="919" y1="1107.77" x2="919" y2="3.76732" gradientUnits="userSpaceOnUse">
<stop stop-color="white"/>
<stop offset="1" stop-color="white" stop-opacity="0"/>
</linearGradient>
<linearGradient id="paint1_linear_603_598" x1="908" y1="928" x2="913.714" y2="-46.0016" gradientUnits="userSpaceOnUse">
<stop stop-color="white"/>
<stop offset="0.384753" stop-color="white" stop-opacity="0"/>
</linearGradient>
<clipPath id="clip0_603_598">
<rect width="258.77" height="174.52" fill="white" transform="translate(901.945 87) rotate(15.6044)"/>
</clipPath>
<clipPath id="clip1_603_598">
<rect width="214.89" height="168.9" fill="white" transform="matrix(0.457885 0.889012 0.889012 -0.457885 183.323 662.728)"/>
</clipPath>
<clipPath id="clip2_603_598">
<rect width="214.89" height="168.9" fill="white" transform="matrix(-0.995742 0.0921889 0.0921889 0.995742 1069.97 721)"/>
</clipPath>
</defs>
</svg>
