<svg width="171" height="51" viewBox="0 0 171 51" fill="none" xmlns="http://www.w3.org/2000/svg">
<g opacity="0.3">
<path fill-rule="evenodd" clip-rule="evenodd" d="M145.996 1.229H140.223L126.929 21.923H130.291C132.205 21.923 132.386 20.9886 134.812 19.6471C138.701 17.6124 145.694 17.9139 145.694 17.9139C145.374 18.0739 145.112 18.3299 144.945 18.646C144.777 18.9621 144.713 19.3227 144.76 19.6773L145.167 21.923H151L145.996 1.229ZM136.289 15.2159C136.857 14.6705 137.362 14.0639 137.796 13.4073L142.062 6.85091L143.448 13.5731C140.964 13.5312 138.507 14.095 136.289 15.2159Z" fill="white"/>
<path d="M19.4048 1.9827C17.7004 1.17893 15.8327 0.781657 13.9487 0.822148C11.6136 0.77624 9.30528 1.32609 7.24162 2.41979C5.32367 3.43601 3.73057 4.97166 2.64462 6.851C1.53164 8.79992 0.964142 11.0126 1.00176 13.2567C0.972947 14.9243 1.4059 16.5674 2.25274 18.0044C3.11588 19.4001 4.36068 20.5193 5.83991 21.2298C7.55033 22.0302 9.42327 22.4223 11.3111 22.3753C13.6458 22.4172 15.9531 21.8676 18.0182 20.7776C19.9108 19.7534 21.4775 18.218 22.5398 16.3464C23.65 14.3964 24.2173 12.1845 24.1827 9.94079C24.2191 8.27698 23.7855 6.63663 22.9317 5.20814C22.0894 3.81729 20.8652 2.69773 19.4048 1.9827ZM17.5811 13.9198C17.0824 14.9895 16.294 15.898 15.3052 16.5424C14.285 17.2087 13.0869 17.5503 11.8688 17.5221C10.5497 17.5985 9.25424 17.1486 8.26652 16.2711C7.81973 15.8299 7.46971 15.3006 7.23876 14.7167C7.0078 14.1328 6.90099 13.5073 6.9251 12.8799C6.91229 11.6241 7.18547 10.382 7.72393 9.24747C8.24426 8.18616 9.04746 7.28908 10.045 6.65506C11.0687 5.99638 12.2644 5.65549 13.4815 5.67537C14.1359 5.6362 14.7916 5.728 15.4102 5.94539C16.0287 6.16279 16.5977 6.50141 17.0837 6.94143C17.5159 7.38421 17.8525 7.91097 18.0729 8.4891C18.2932 9.06723 18.3926 9.68444 18.3649 10.3025C18.391 11.5531 18.1225 12.7922 17.5811 13.9198Z" fill="white"/>
<path d="M41.8623 15.4874C43.3193 14.849 44.5601 13.8019 45.4344 12.473C46.2899 11.1222 46.7301 9.55 46.7005 7.95136C46.7437 7.01659 46.5687 6.0846 46.1894 5.22916C45.8101 4.37372 45.2368 3.61833 44.515 3.02277C42.703 1.73745 40.5084 1.10511 38.2902 1.22919H29.5182L25.3734 21.9232H31.2365L32.3066 16.4973H36.4514C38.3066 16.5528 40.1521 16.2084 41.8623 15.4874ZM34.4318 5.85634H37.5216C38.3726 5.80247 39.2183 6.02447 39.9331 6.48936C40.2111 6.71231 40.4325 6.99784 40.5792 7.32264C40.7259 7.64743 40.7937 8.00231 40.7771 8.35831C40.8074 8.84416 40.7283 9.33062 40.5457 9.78187C40.3632 10.2331 40.0817 10.6377 39.7221 10.9658C38.8659 11.6351 37.7917 11.9628 36.7077 11.8852H33.226L34.4318 5.85634Z" fill="white"/>
<path d="M50.6345 1.24414L49.6849 5.88636H56.0454L53.3324 19.4362L53.242 19.8432L52.8199 21.9683H58.683L59.7682 16.5876L59.8285 16.256L61.9084 5.88636H68.2538L69.2033 1.24414H50.6345Z" fill="white"/>
<path d="M73.1672 1.24414L71.0721 11.6741L71.042 11.9001L69.0223 21.9683H74.8854L77.3422 9.66946L77.3874 9.45845L79.0302 1.24414H73.1672Z" fill="white"/>
<path d="M92.8062 13.2265L87.9379 1.24414H83.1751L79.0303 21.9683H84.4261L86.6116 11.041L90.3796 19.9185H92.9569L99.8449 11.041L97.7197 21.9683H103.146L107.155 1.62094L107.23 1.24414H102.226L92.8062 13.2265Z" fill="white"/>
<path d="M114.721 13.6485H123.96L124.819 9.26251H115.61L116.289 5.76578H126.734L127.653 1.24414H111.435L107.291 21.9683H123.9L124.85 17.4316H113.983L114.721 13.6485Z" fill="white"/>
<path d="M160.872 17.311L164.067 1.24414H158.204L154.059 21.9683H169.81L170.759 17.311H160.872Z" fill="white"/>
<path d="M3.184 34.096C2.74133 34.096 2.31733 34.0373 1.912 33.92C1.50667 33.8027 1.18133 33.6533 0.936 33.472L1.464 32.472C1.72 32.6587 2.008 32.8027 2.328 32.904C2.648 33.0053 2.976 33.056 3.312 33.056C3.66933 33.056 3.952 32.9973 4.16 32.88C4.368 32.7627 4.472 32.6027 4.472 32.4C4.472 32.2347 4.38933 32.1093 4.224 32.024C4.05867 31.9333 3.79467 31.8373 3.432 31.736C3.06933 31.6293 2.77333 31.528 2.544 31.432C2.31467 31.3307 2.11467 31.1813 1.944 30.984C1.77867 30.7867 1.696 30.5253 1.696 30.2C1.696 29.8213 1.8 29.488 2.008 29.2C2.22133 28.912 2.52 28.6907 2.904 28.536C3.29333 28.3813 3.744 28.304 4.256 28.304C4.63467 28.304 4.992 28.3467 5.328 28.432C5.664 28.512 5.952 28.6293 6.192 28.784L5.704 29.776C5.496 29.632 5.26133 29.5253 5 29.456C4.73867 29.3813 4.46667 29.344 4.184 29.344C3.816 29.344 3.52533 29.408 3.312 29.536C3.09867 29.664 2.992 29.8293 2.992 30.032C2.992 30.1547 3.03733 30.2587 3.128 30.344C3.21867 30.424 3.33333 30.4907 3.472 30.544C3.61067 30.592 3.80533 30.6507 4.056 30.72C4.41333 30.816 4.70667 30.9147 4.936 31.016C5.16533 31.112 5.36 31.256 5.52 31.448C5.68533 31.6347 5.768 31.8827 5.768 32.192C5.768 32.576 5.66133 32.912 5.448 33.2C5.23467 33.4827 4.93333 33.704 4.544 33.864C4.15467 34.0187 3.70133 34.096 3.184 34.096ZM16.1176 28.4C16.8162 28.4 17.3549 28.5547 17.7336 28.864C18.1176 29.168 18.3096 29.5947 18.3096 30.144C18.3096 30.6133 18.1976 31.024 17.9736 31.376C17.7549 31.7227 17.4402 31.9893 17.0296 32.176C16.6242 32.3627 16.1442 32.456 15.5896 32.456H14.3416L14.0376 34H12.7336L13.8536 28.4H16.1176ZM15.6456 31.4C16.0776 31.4 16.4109 31.3013 16.6456 31.104C16.8802 30.9067 16.9976 30.624 16.9976 30.256C16.9976 29.9893 16.9069 29.7893 16.7256 29.656C16.5496 29.5227 16.2936 29.456 15.9576 29.456H14.9416L14.5496 31.4H15.6456ZM27.8969 34.096C27.3369 34.096 26.8516 33.9947 26.4409 33.792C26.0303 33.5893 25.7156 33.304 25.4969 32.936C25.2783 32.568 25.1689 32.144 25.1689 31.664C25.1689 31.0293 25.3129 30.4587 25.6009 29.952C25.8943 29.44 26.3023 29.0373 26.8249 28.744C27.3529 28.4507 27.9556 28.304 28.6329 28.304C29.1929 28.304 29.6783 28.4053 30.0889 28.608C30.4996 28.8107 30.8143 29.096 31.0329 29.464C31.2516 29.832 31.3609 30.256 31.3609 30.736C31.3609 31.3707 31.2143 31.944 30.9209 32.456C30.6329 32.9627 30.2249 33.3627 29.6969 33.656C29.1743 33.9493 28.5743 34.096 27.8969 34.096ZM28.0089 32.992C28.4196 32.992 28.7796 32.8933 29.0889 32.696C29.3983 32.4987 29.6356 32.2347 29.8009 31.904C29.9663 31.5733 30.0489 31.208 30.0489 30.808C30.0489 30.3813 29.9156 30.0427 29.6489 29.792C29.3823 29.536 29.0063 29.408 28.5209 29.408C28.1103 29.408 27.7503 29.5067 27.4409 29.704C27.1316 29.9013 26.8943 30.1653 26.7289 30.496C26.5636 30.8267 26.4809 31.192 26.4809 31.592C26.4809 32.0187 26.6143 32.36 26.8809 32.616C27.1476 32.8667 27.5236 32.992 28.0089 32.992ZM43.7349 30.136C43.7349 30.6587 43.5936 31.1067 43.3109 31.48C43.0283 31.8533 42.6363 32.1173 42.1349 32.272L43.1109 34H41.7429L40.8629 32.432H39.7589L39.4469 34H38.1429L39.2629 28.4H41.5429C42.2363 28.4 42.7749 28.552 43.1589 28.856C43.5429 29.16 43.7349 29.5867 43.7349 30.136ZM41.0629 31.4C41.4949 31.4 41.8283 31.3013 42.0629 31.104C42.3029 30.9067 42.4229 30.624 42.4229 30.256C42.4229 29.9893 42.3323 29.7893 42.1509 29.656C41.9696 29.5227 41.7109 29.456 41.3749 29.456H40.3509L39.9589 31.4H41.0629ZM52.4116 29.456H50.6196L50.8356 28.4H55.7156L55.4996 29.456H53.7156L52.8036 34H51.5076L52.4116 29.456ZM76.6146 28.4L75.4946 34H74.4306L72.3426 30.496L71.6386 34H70.3586L71.4786 28.4H72.5506L74.6386 31.912L75.3346 28.4H76.6146ZM85.8595 34.096C85.1555 34.096 84.6035 33.9227 84.2035 33.576C83.8035 33.224 83.6035 32.744 83.6035 32.136C83.6035 31.96 83.6248 31.76 83.6675 31.536L84.2915 28.4H85.5955L84.9715 31.512C84.9395 31.688 84.9235 31.8453 84.9235 31.984C84.9235 32.32 85.0142 32.5733 85.1955 32.744C85.3822 32.9093 85.6515 32.992 86.0035 32.992C86.3982 32.992 86.7128 32.8747 86.9475 32.64C87.1822 32.4053 87.3528 32.0293 87.4595 31.512L88.0835 28.4H89.3555L88.7235 31.592C88.3822 33.2613 87.4275 34.096 85.8595 34.096ZM97.8944 29.456H96.1024L96.3184 28.4H101.198L100.982 29.456H99.1984L98.2864 34H96.9904L97.8944 29.456ZM112.768 30.136C112.768 30.6587 112.626 31.1067 112.344 31.48C112.061 31.8533 111.669 32.1173 111.168 32.272L112.144 34H110.776L109.896 32.432H108.792L108.48 34H107.176L108.296 28.4H110.576C111.269 28.4 111.808 28.552 112.192 28.856C112.576 29.16 112.768 29.5867 112.768 30.136ZM110.096 31.4C110.528 31.4 110.861 31.3013 111.096 31.104C111.336 30.9067 111.456 30.624 111.456 30.256C111.456 29.9893 111.365 29.7893 111.184 29.656C111.002 29.5227 110.744 29.456 110.408 29.456H109.384L108.992 31.4H110.096ZM120.579 28.4H121.883L120.763 34H119.459L120.579 28.4ZM130.548 29.456H128.756L128.972 28.4H133.852L133.636 29.456H131.852L130.94 34H129.644L130.548 29.456ZM140.949 28.4H142.253L141.133 34H139.829L140.949 28.4ZM151.758 34.096C151.198 34.096 150.713 33.9947 150.302 33.792C149.891 33.5893 149.577 33.304 149.358 32.936C149.139 32.568 149.03 32.144 149.03 31.664C149.03 31.0293 149.174 30.4587 149.462 29.952C149.755 29.44 150.163 29.0373 150.686 28.744C151.214 28.4507 151.817 28.304 152.494 28.304C153.054 28.304 153.539 28.4053 153.95 28.608C154.361 28.8107 154.675 29.096 154.894 29.464C155.113 29.832 155.222 30.256 155.222 30.736C155.222 31.3707 155.075 31.944 154.782 32.456C154.494 32.9627 154.086 33.3627 153.558 33.656C153.035 33.9493 152.435 34.096 151.758 34.096ZM151.87 32.992C152.281 32.992 152.641 32.8933 152.95 32.696C153.259 32.4987 153.497 32.2347 153.662 31.904C153.827 31.5733 153.91 31.208 153.91 30.808C153.91 30.3813 153.777 30.0427 153.51 29.792C153.243 29.536 152.867 29.408 152.382 29.408C151.971 29.408 151.611 29.5067 151.302 29.704C150.993 29.9013 150.755 30.1653 150.59 30.496C150.425 30.8267 150.342 31.192 150.342 31.592C150.342 32.0187 150.475 32.36 150.742 32.616C151.009 32.8667 151.385 32.992 151.87 32.992ZM168.26 28.4L167.14 34H166.076L163.988 30.496L163.284 34H162.004L163.124 28.4H164.196L166.284 31.912L166.98 28.4H168.26Z" fill="white"/>
</g>
</svg>
