<svg width="298" height="140" viewBox="0 0 298 140" fill="none" xmlns="http://www.w3.org/2000/svg">
<path d="M51.0442 1.55574C21.4127 2.83107 4.69396 22.519 1.72483 35.8701C-3.25693 58.1684 1.72483 95.6512 27.63 99.1185C43.4321 101.111 88.6665 103.682 135.854 103.841C199.381 104.08 232.201 103.841 248.402 100.513C257.627 98.5086 266.008 93.7039 272.4 86.756C278.791 79.808 282.881 71.0558 284.111 61.6955C287.18 35.6708 272.155 5.38173 245.791 2.97056C203.008 -0.974994 98.4706 -0.496746 51.0442 1.55574Z" fill="white"/>
<path d="M51.0442 1.55574C21.4127 2.83107 4.69396 22.519 1.72483 35.8701C-3.25693 58.1684 1.72483 95.6512 27.63 99.1185C43.4321 101.111 88.6665 103.682 135.854 103.841C199.381 104.08 232.201 103.841 248.402 100.513C257.627 98.5086 266.008 93.7039 272.4 86.756C278.791 79.808 282.881 71.0558 284.111 61.6955C287.18 35.6708 272.155 5.38173 245.791 2.97056C203.008 -0.974994 98.4706 -0.496746 51.0442 1.55574Z" fill="url(#paint0_linear_603_551)"/>
<path d="M298 107.746C298 115.996 294.672 123.528 279.308 122.691C275.369 122.615 271.612 121.016 268.825 118.229C266.039 115.443 264.44 111.686 264.363 107.746C264.363 103.782 265.938 99.9808 268.741 97.178C271.543 94.3752 275.345 92.8006 279.308 92.8006C294.473 92.8006 298 99.4961 298 107.746Z" fill="white"/>
<path d="M298 107.746C298 115.996 294.672 123.528 279.308 122.691C275.369 122.615 271.612 121.016 268.825 118.229C266.039 115.443 264.44 111.686 264.363 107.746C264.363 103.782 265.938 99.9808 268.741 97.178C271.543 94.3752 275.345 92.8006 279.308 92.8006C294.473 92.8006 298 99.4961 298 107.746Z" fill="url(#paint1_linear_603_551)"/>
<path d="M278.75 133.81C278.75 136.819 277.555 139.569 271.955 139.27C270.52 139.235 269.154 138.648 268.141 137.631C267.128 136.614 266.546 135.246 266.515 133.81C266.515 132.368 267.088 130.984 268.109 129.964C269.129 128.943 270.512 128.37 271.955 128.37C277.475 128.37 278.75 130.801 278.75 133.81Z" fill="white"/>
<path d="M278.75 133.81C278.75 136.819 277.555 139.569 271.955 139.27C270.52 139.235 269.154 138.648 268.141 137.631C267.128 136.614 266.546 135.246 266.515 133.81C266.515 132.368 267.088 130.984 268.109 129.964C269.129 128.943 270.512 128.37 271.955 128.37C277.475 128.37 278.75 130.801 278.75 133.81Z" fill="url(#paint2_linear_603_551)"/>
<defs>
<linearGradient id="paint0_linear_603_551" x1="149" y1="151" x2="149" y2="13" gradientUnits="userSpaceOnUse">
<stop stop-color="#D07CC6"/>
<stop offset="1" stop-color="white" stop-opacity="0"/>
</linearGradient>
<linearGradient id="paint1_linear_603_551" x1="149" y1="151" x2="149" y2="13" gradientUnits="userSpaceOnUse">
<stop stop-color="#D07CC6"/>
<stop offset="1" stop-color="white" stop-opacity="0"/>
</linearGradient>
<linearGradient id="paint2_linear_603_551" x1="149" y1="151" x2="149" y2="13" gradientUnits="userSpaceOnUse">
<stop stop-color="#D07CC6"/>
<stop offset="1" stop-color="white" stop-opacity="0"/>
</linearGradient>
</defs>
</svg>
